<?xml version="1.0" encoding="UTF-8" standalone="no"?>
<!-- Created with Inkscape (http://www.inkscape.org/) -->

<svg
   xmlns:dc="http://purl.org/dc/elements/1.1/"
   xmlns:cc="http://creativecommons.org/ns#"
   xmlns:rdf="http://www.w3.org/1999/02/22-rdf-syntax-ns#"
   xmlns:svg="http://www.w3.org/2000/svg"
   xmlns="http://www.w3.org/2000/svg"
   xmlns:sodipodi="http://sodipodi.sourceforge.net/DTD/sodipodi-0.dtd"
   xmlns:inkscape="http://www.inkscape.org/namespaces/inkscape"
   id="svg859"
   version="1.1"
   viewBox="0 0 381.00001 381.00001"
   height="15in"
   width="15in"
   inkscape:version="0.92.2 (5c3e80d, 2017-08-06)"
   sodipodi:docname="switch_box2.svg">
  <sodipodi:namedview
     inkscape:window-maximized="1"
     inkscape:window-y="-8"
     inkscape:window-x="-8"
     inkscape:window-height="705"
     inkscape:window-width="1366"
     units="in"
     showgrid="true"
     inkscape:current-layer="svg859"
     inkscape:document-units="in"
     inkscape:cy="1027.0518"
     inkscape:cx="108.45101"
     inkscape:zoom="0.24748737"
     inkscape:pageshadow="2"
     inkscape:pageopacity="0.0"
     borderopacity="1.0"
     bordercolor="#666666"
     pagecolor="#ffffff"
     id="base"
     inkscape:snap-global="false" />
  <defs
     id="defs853" />
  <metadata
     id="metadata856">
    <rdf:RDF>
      <cc:Work
         rdf:about="">
        <dc:format>image/svg+xml</dc:format>
        <dc:type
           rdf:resource="http://purl.org/dc/dcmitype/StillImage" />
        <dc:title></dc:title>
      </cc:Work>
    </rdf:RDF>
  </metadata>
  <g
     transform="translate(0,84.000011)"
     id="layer1"
     inkscape:groupmode="layer"
     inkscape:label="Layer 1" />
  <g
     id="g2126"
     inkscape:groupmode="layer"
     inkscape:label="newlayer" />
  <g
     id="g2265"
     transform="translate(186.0196,-270.47677)">
    <path
       d="m 132.08,279.4 h 13.335 v -2.54 h 10.16 v 2.54 h 13.335"
       style="fill:none;stroke:#ff0000;stroke-width:1"
       inkscape:label="part"
       id="path2128"
       inkscape:connector-curvature="0" />
    <path
       d="m 168.91,279.4 v 10.16 h -2.54 v 10.16 h 2.54 v 12.7 h -2.54 v 10.16 h 2.54 v 12.7 h -2.54 v 10.16 h 2.54 v 10.16"
       style="fill:none;stroke:#ff0000;stroke-width:1"
       inkscape:label="part"
       id="path2130"
       inkscape:connector-curvature="0" />
    <path
       d="m 168.91,355.6 h -13.335 v 0 h -10.16 v 0 H 132.08"
       style="fill:none;stroke:#ff0000;stroke-width:1"
       inkscape:label="part"
       id="path2132"
       inkscape:connector-curvature="0" />
    <path
       d="m 132.08,355.6 v -10.16 h 2.54 v -10.16 h -2.54 v -12.7 h 2.54 v -10.16 h -2.54 v -12.7 h 2.54 v -10.16 h -2.54 V 279.4"
       style="fill:none;stroke:#ff0000;stroke-width:1"
       inkscape:label="part"
       id="path2134"
       inkscape:connector-curvature="0" />
  </g>
  <g
     id="g2241"
     transform="translate(-19.243406,-125.08214)">
    <path
       d="M 27.94,134.62 H 38.1 v -2.54 h 10.16 v 2.54 h 12.7 v -2.54 h 10.16 v 2.54 h 12.7 v -2.54 h 10.16 v 2.54 h 10.16"
       style="fill:none;stroke:#ff0000;stroke-width:1"
       inkscape:label="part"
       id="path2136"
       inkscape:connector-curvature="0" />
    <path
       d="m 104.14,134.62 v 8.89 h 2.54 v 10.16 h -2.54 v 11.43 h 2.54 v 10.16 h -2.54 v 11.43 h 2.54 v 10.16 h -2.54 v 11.43 h 2.54 v 10.16 h -2.54 v 11.43 h 2.54 v 10.16 h -2.54 v 8.89"
       style="fill:none;stroke:#ff0000;stroke-width:1"
       inkscape:label="part"
       id="path2138"
       inkscape:connector-curvature="0" />
    <path
       d="M 104.14,248.92 H 93.98 v 2.54 H 83.82 v -2.54 h -12.7 v 2.54 H 60.96 v -2.54 h -12.7 v 2.54 H 38.1 v -2.54 H 27.94"
       style="fill:none;stroke:#ff0000;stroke-width:1"
       inkscape:label="part"
       id="path2140"
       inkscape:connector-curvature="0" />
    <path
       d="m 27.94,248.92 v -8.89 0 -10.16 0 -11.43 0 -10.16 0 -11.43 0 -10.16 0 -11.43 0 -10.16 0 -11.43 0 -10.16 0 -8.89"
       style="fill:none;stroke:#ff0000;stroke-width:1"
       inkscape:label="part"
       id="path2142"
       inkscape:connector-curvature="0" />
  </g>
  <g
     id="g2253"
     transform="translate(-101.56242,-125.08214)">
    <path
       d="m 196.85,134.62 h 10.16 v -2.54 h 10.16 v 2.54 h 12.7 v -2.54 h 10.16 v 2.54 h 12.7 v -2.54 h 10.16 v 2.54 h 10.16"
       style="fill:none;stroke:#ff0000;stroke-width:1"
       inkscape:label="part"
       id="path2152"
       inkscape:connector-curvature="0" />
    <path
       d="m 273.05,134.62 v 8.89 0 10.16 0 11.43 0 10.16 0 11.43 0 10.16 0 11.43 0 10.16 0 11.43 0 10.16 0 8.89"
       style="fill:none;stroke:#ff0000;stroke-width:1"
       inkscape:label="part"
       id="path2154"
       inkscape:connector-curvature="0" />
    <path
       d="m 273.05,248.92 h -10.16 v 2.54 h -10.16 v -2.54 h -12.7 v 2.54 h -10.16 v -2.54 h -12.7 v 2.54 h -10.16 v -2.54 h -10.16"
       style="fill:none;stroke:#ff0000;stroke-width:1"
       inkscape:label="part"
       id="path2156"
       inkscape:connector-curvature="0" />
    <path
       d="m 196.85,248.92 v -8.89 h -2.54 v -10.16 h 2.54 v -11.43 h -2.54 v -10.16 h 2.54 v -11.43 h -2.54 v -10.16 h 2.54 v -11.43 h -2.54 V 165.1 h 2.54 v -11.43 h -2.54 v -10.16 h 2.54 v -8.89"
       style="fill:none;stroke:#ff0000;stroke-width:1"
       inkscape:label="part"
       id="path2158"
       inkscape:connector-curvature="0" />
  </g>
  <g
     id="g2259"
     transform="translate(-74.83547,-125.08214)">
    <path
       d="m 300.99,132.08 h 13.335 v 0 h 10.16 v 0 h 13.335"
       style="fill:none;stroke:#ff0000;stroke-width:1"
       inkscape:label="part"
       id="path2160"
       inkscape:connector-curvature="0" />
    <path
       d="m 337.82,132.08 v 11.43 0 10.16 0 11.43 0 10.16 0 11.43 0 10.16 0 11.43 0 10.16 0 11.43 0 10.16 0 11.43"
       style="fill:none;stroke:#ff0000;stroke-width:1"
       inkscape:label="part"
       id="path2162"
       inkscape:connector-curvature="0" />
    <path
       d="m 337.82,251.46 h -13.335 v 0 h -10.16 v 0 H 300.99"
       style="fill:none;stroke:#ff0000;stroke-width:1"
       inkscape:label="part"
       id="path2164"
       inkscape:connector-curvature="0" />
    <path
       d="m 300.99,251.46 v -11.43 0 -10.16 0 -11.43 0 -10.16 0 -11.43 0 -10.16 0 -11.43 0 -10.16 0 -11.43 0 -10.16 0 -11.43"
       style="fill:none;stroke:#ff0000;stroke-width:1"
       inkscape:label="part"
       id="path2166"
       inkscape:connector-curvature="0" />
  </g>
  <g
     id="g2247"
     transform="translate(141.11831,-19.243404)">
    <path
       d="m 132.08,27.94 h 13.335 v 0 h 10.16 v 0 h 13.335"
       style="fill:none;stroke:#ff0000;stroke-width:1"
       inkscape:label="part"
       id="path2168"
       inkscape:connector-curvature="0" />
    <path
       d="M 168.91,27.94 V 38.1 h -2.54 v 10.16 h 2.54 v 12.7 h -2.54 v 10.16 h 2.54 v 12.7 h -2.54 v 10.16 h 2.54 v 10.16"
       style="fill:none;stroke:#ff0000;stroke-width:1"
       inkscape:label="part"
       id="path2170"
       inkscape:connector-curvature="0" />
    <path
       d="m 168.91,104.14 h -13.335 v 2.54 h -10.16 v -2.54 H 132.08"
       style="fill:none;stroke:#ff0000;stroke-width:1"
       inkscape:label="part"
       id="path2172"
       inkscape:connector-curvature="0" />
    <path
       d="M 132.08,104.14 V 93.98 h 2.54 V 83.82 h -2.54 v -12.7 h 2.54 V 60.96 h -2.54 v -12.7 h 2.54 V 38.1 h -2.54 V 27.94"
       style="fill:none;stroke:#ff0000;stroke-width:1"
       inkscape:label="part"
       id="path2174"
       inkscape:connector-curvature="0" />
  </g>
  <g
     id="g2235"
     style="stroke:#ff0000"
     transform="translate(47.039438,-125.08214)">
    <path
       d="m 132.08,132.08 h 13.335 v 2.54 h 10.16 v -2.54 h 13.335"
       style="fill:none;stroke:#ff0000;stroke-width:1"
       inkscape:label="part"
       id="path2144"
       inkscape:connector-curvature="0" />
    <path
       d="m 168.91,132.08 v 11.43 h -2.54 v 10.16 h 2.54 v 11.43 h -2.54 v 10.16 h 2.54 v 11.43 h -2.54 v 10.16 h 2.54 v 11.43 h -2.54 v 10.16 h 2.54 v 11.43 h -2.54 v 10.16 h 2.54 v 11.43"
       style="fill:none;stroke:#ff0000;stroke-width:1"
       inkscape:label="part"
       id="path2146"
       inkscape:connector-curvature="0" />
    <path
       d="m 168.91,251.46 h -13.335 v -2.54 h -10.16 v 2.54 H 132.08"
       style="fill:none;stroke:#ff0000;stroke-width:1"
       inkscape:label="part"
       id="path2148"
       inkscape:connector-curvature="0" />
    <path
       d="m 132.08,251.46 v -11.43 h 2.54 v -10.16 h -2.54 v -11.43 h 2.54 v -10.16 h -2.54 v -11.43 h 2.54 v -10.16 h -2.54 v -11.43 h 2.54 V 165.1 h -2.54 v -11.43 h 2.54 v -10.16 h -2.54 v -11.43"
       style="fill:none;stroke:#ff0000;stroke-width:1"
       inkscape:label="part"
       id="path2150"
       inkscape:connector-curvature="0" />
    <circle
       transform="rotate(89.446336)"
       r="12.232459"
       cy="-148.90532"
       cx="233.93198"
       id="path2205"
       style="fill:#ffffff;fill-opacity:1;stroke:#ff0000;stroke-width:0.93508166;stroke-miterlimit:4;stroke-dasharray:none;stroke-opacity:1" />
    <circle
       transform="rotate(89.446336)"
       style="fill:#ffffff;fill-opacity:1;stroke:#ff0000;stroke-width:0.93508166;stroke-miterlimit:4;stroke-dasharray:none;stroke-opacity:1"
       id="circle2207"
       cx="207.34393"
       cy="-148.19524"
       r="12.232459" />
    <circle
       transform="rotate(89.446336)"
       r="12.232459"
       cy="-148.37079"
       cx="180.71005"
       id="circle2209"
       style="fill:#ffffff;fill-opacity:1;stroke:#ff0000;stroke-width:0.93508166;stroke-miterlimit:4;stroke-dasharray:none;stroke-opacity:1" />
    <circle
       transform="rotate(89.446336)"
       style="fill:#ffffff;fill-opacity:1;stroke:#ff0000;stroke-width:0.93508166;stroke-miterlimit:4;stroke-dasharray:none;stroke-opacity:1"
       id="circle2211"
       cx="153.44991"
       cy="-148.37079"
       r="12.232459" />
  </g>
</svg>
