<?xml version="1.0" encoding="UTF-8" standalone="no"?>
<!-- Created with Inkscape (http://www.inkscape.org/) -->

<svg
   xmlns:dc="http://purl.org/dc/elements/1.1/"
   xmlns:cc="http://creativecommons.org/ns#"
   xmlns:rdf="http://www.w3.org/1999/02/22-rdf-syntax-ns#"
   xmlns:svg="http://www.w3.org/2000/svg"
   xmlns="http://www.w3.org/2000/svg"
   xmlns:sodipodi="http://sodipodi.sourceforge.net/DTD/sodipodi-0.dtd"
   xmlns:inkscape="http://www.inkscape.org/namespaces/inkscape"
   width="24in"
   height="12in"
   viewBox="0 0 2160 1080"
   id="svg2"
   version="1.1"
   inkscape:version="0.91 r13725"
   sodipodi:docname="switch_top.svg">
  <defs
     id="defs4" />
  <sodipodi:namedview
     id="base"
     pagecolor="#ffffff"
     bordercolor="#666666"
     borderopacity="1.0"
     inkscape:pageopacity="0.0"
     inkscape:pageshadow="2"
     inkscape:zoom="0.7"
     inkscape:cx="419.40676"
     inkscape:cy="540.53694"
     inkscape:document-units="in"
     inkscape:current-layer="layer1"
     showgrid="true"
     units="in"
     showborder="true"
     inkscape:window-width="1280"
     inkscape:window-height="962"
     inkscape:window-x="-8"
     inkscape:window-y="-8"
     inkscape:window-maximized="1">
    <inkscape:grid
       type="xygrid"
       id="grid4178"
       units="in"
       spacingx="22.5"
       spacingy="22.5" />
  </sodipodi:namedview>
  <metadata
     id="metadata7">
    <rdf:RDF>
      <cc:Work
         rdf:about="">
        <dc:format>image/svg+xml</dc:format>
        <dc:type
           rdf:resource="http://purl.org/dc/dcmitype/StillImage" />
        <dc:title></dc:title>
      </cc:Work>
    </rdf:RDF>
  </metadata>
  <g
     inkscape:label="Layer 1"
     inkscape:groupmode="layer"
     id="layer1"
     transform="translate(0,27.637825)">
    <g
       id="g4196"
       transform="translate(-294.04967,-118.09199)">
      <g
         transform="translate(88.571427,12.857143)"
         style="stroke-width:0.89999998;stroke-miterlimit:4;stroke-dasharray:none"
         id="g4166">
        <path
           inkscape:connector-curvature="0"
           id="path2144"
           inkscape:label="part"
           style="fill:none;stroke:#ff0000;stroke-width:0.89999998;stroke-miterlimit:4;stroke-dasharray:none"
           d="m 304.75,126.57649 47.25,0 0,9 36,0 0,-9 47.25,0" />
        <path
           inkscape:connector-curvature="0"
           id="path2146"
           inkscape:label="part"
           style="fill:none;stroke:#ff0000;stroke-width:0.89999998;stroke-miterlimit:4;stroke-dasharray:none"
           d="m 435.25,126.57649 0,40.5 -9,0 0,36 9,0 0,40.5 -9,0 0,36 9,0 0,40.5 -9,0 0,36 9,0 0,40.5 -9,0 0,36 9,0 0,40.5 -9,0 0,36 9,0 0,40.5" />
        <path
           inkscape:connector-curvature="0"
           id="path2148"
           inkscape:label="part"
           style="fill:none;stroke:#ff0000;stroke-width:0.89999998;stroke-miterlimit:4;stroke-dasharray:none"
           d="m 435.25,549.57649 -47.25,0 0,-9 -36,0 0,9 -47.25,0" />
        <path
           inkscape:connector-curvature="0"
           id="path2150"
           inkscape:label="part"
           style="fill:none;stroke:#ff0000;stroke-width:0.89999998;stroke-miterlimit:4;stroke-dasharray:none"
           d="m 304.75,549.57649 0,-40.5 9,0 0,-36 -9,0 0,-40.5 9,0 0,-36 -9,0 0,-40.5 9,0 0,-36 -9,0 0,-40.5 9,0 0,-36 -9,0 0,-40.5 9,0 0,-36 -9,0 0,-40.5" />
      </g>
    </g>
    <g
       id="g4190"
       transform="translate(-507.70865,-150)">
      <ellipse
         ry="35.549965"
         rx="35.549969"
         transform="matrix(0.00966311,0.99995331,-0.99995331,0.00966312,0,0)"
         style="fill:#ffffff;fill-opacity:1;stroke:#ff0000;stroke-width:0.89999998;stroke-miterlimit:4;stroke-dasharray:none;stroke-opacity:1"
         id="circle2211"
         cx="251.47755"
         cy="-670.72485" />
      <ellipse
         cy="-669.6225"
         cx="343.37592"
         id="ellipse4172"
         style="fill:#ffffff;fill-opacity:1;stroke:#ff0000;stroke-width:0.89999998;stroke-miterlimit:4;stroke-dasharray:none;stroke-opacity:1"
         transform="matrix(0.00966311,0.99995331,-0.99995331,0.00966312,0,0)"
         rx="35.549969"
         ry="35.549965" />
      <ellipse
         ry="35.549965"
         rx="35.549969"
         transform="matrix(0.00966311,0.99995331,-0.99995331,0.00966312,0,0)"
         style="fill:#ffffff;fill-opacity:1;stroke:#ff0000;stroke-width:0.89999998;stroke-miterlimit:4;stroke-dasharray:none;stroke-opacity:1"
         id="ellipse4174"
         cx="435.2785"
         cy="-668.94873" />
      <ellipse
         cy="-666.27496"
         cx="527.16168"
         id="ellipse4176"
         style="fill:#ffffff;fill-opacity:1;stroke:#ff0000;stroke-width:0.89999998;stroke-miterlimit:4;stroke-dasharray:none;stroke-opacity:1"
         transform="matrix(0.00966311,0.99995331,-0.99995331,0.00966312,0,0)"
         rx="35.549969"
         ry="35.549965" />
    </g>
  </g>
</svg>
